<svg width="171" height="58" viewBox="0 0 171 58" fill="none" xmlns="http://www.w3.org/2000/svg">
<path d="M22.566 11.508C26.0978 11.4431 30.2194 11.4539 33.7339 11.5507C33.735 11.883 33.7344 12.2154 33.732 12.5477C33.7391 12.8949 33.7381 13.2823 33.755 13.6256C34.3509 13.625 34.9297 13.6272 35.5256 13.5966L35.5336 15.6425C36.1198 15.6437 36.7816 15.6596 37.3619 15.6444C37.3618 16.257 37.3279 17.2714 37.4608 17.8393C37.5443 18.4398 37.5471 18.9919 37.5376 19.5976C38.0423 19.525 38.8734 19.5579 39.4096 19.5599C39.4489 20.8667 39.4035 22.3051 39.3624 23.6212C39.8172 23.6272 40.442 23.6179 40.8793 23.6745C40.8845 25.811 40.7819 28.1832 40.8391 30.2781C41.1319 30.2909 41.3464 30.3024 41.6404 30.3451C41.6543 31.6283 41.6114 32.9333 41.6097 34.2238C41.5929 35.2291 41.5726 36.2428 41.5765 37.2477C41.5802 38.1696 41.6448 39.0688 41.5606 39.9918L40.6672 39.987C40.669 40.5386 40.6654 41.0902 40.6565 41.6418C40.1693 41.6519 39.6182 41.6781 39.1392 41.6247C39.1319 42.2148 39.1214 42.8047 39.1078 43.3947C38.5401 43.4297 38.0494 43.463 37.478 43.445L37.4718 45.072C34.5939 45.2023 31.6902 45.0961 28.8089 45.1369C28.6139 45.1397 28.3445 45.1468 28.1574 45.1012C25.2763 44.9888 21.9192 45.1167 19.0021 45.1222C18.9906 44.5434 19.0045 43.9778 19.0169 43.3996C17.854 43.4105 16.691 43.4076 15.5282 43.391L15.4978 43.1946C15.4777 42.7176 15.4966 42.145 15.5047 41.6614C14.9112 41.6351 14.2344 41.659 13.6347 41.6668L13.633 39.924C13.0458 39.9 12.3244 39.93 11.728 39.9392C11.7167 38.6271 11.7166 37.3149 11.7275 36.0029C11.7224 35.4006 11.7096 34.7849 11.7296 34.184C11.7216 32.7698 11.7216 31.3555 11.7296 29.9413L11.7281 23.6853C12.3266 23.6822 12.925 23.6725 13.5232 23.656C13.536 22.3851 13.5 20.9049 13.5615 19.6549C14.1493 19.6023 14.8741 19.6219 15.4739 19.6227L15.4729 17.6528L17.28 17.6496C17.2662 16.9862 17.2846 16.3067 17.2947 15.6421L19.1807 15.6498C19.216 15.0296 19.1743 14.2718 19.1869 13.6245C20.231 13.572 21.4837 13.62 22.5588 13.6004L22.566 11.508Z" fill="#8A858C"/>
<path d="M22.566 11.508C26.0978 11.4431 30.2194 11.4539 33.7339 11.5507C33.735 11.883 33.7344 12.2154 33.732 12.5477C33.6762 12.969 33.6864 13.1979 33.7067 13.6248L24.4602 13.6256C24.4629 14.2786 24.415 15.0243 24.4266 15.6376L21.2129 15.69C20.6102 15.7041 19.8073 15.7524 19.225 15.7381C19.2184 16.4488 19.2166 17.1596 19.2195 17.8703C18.6635 17.8718 17.9175 17.8933 17.3781 17.8658C17.373 19.1456 17.3009 20.3913 17.3176 21.6688C16.7256 21.6741 16.1114 21.6712 15.5216 21.688C15.5239 22.9704 15.4792 24.5417 15.5243 25.8014C14.9535 25.7974 14.1898 25.8142 13.6344 25.7707L13.6248 29.8844C13.0542 29.8722 12.2852 29.8709 11.7296 29.9413L11.7281 23.6853C12.3266 23.6822 12.925 23.6725 13.5232 23.656C13.536 22.3851 13.5 20.9049 13.5615 19.6549C14.1493 19.6023 14.8741 19.6219 15.4739 19.6227L15.4729 17.6528L17.28 17.6496C17.2662 16.9862 17.2846 16.3067 17.2947 15.6421L19.1807 15.6498C19.216 15.0296 19.1743 14.2718 19.1869 13.6245C20.231 13.572 21.4837 13.62 22.5587 13.6004L22.566 11.508Z" fill="#BFBCBE"/>
<path d="M40.6603 34.1732C41.0155 34.1764 41.2568 34.1859 41.6097 34.2238C41.5929 35.2292 41.5726 36.2429 41.5765 37.2478C41.5801 38.1696 41.6448 39.0688 41.5606 39.9919L40.6672 39.9871C40.669 40.5386 40.6654 41.0902 40.6565 41.6418C40.1692 41.6519 39.6182 41.6781 39.1392 41.6247C39.1319 42.2148 39.1214 42.8048 39.1078 43.3948C38.5401 43.4297 38.0494 43.463 37.478 43.445L37.4717 45.072C34.5939 45.2024 31.6902 45.0961 28.8088 45.1369C28.6138 45.1397 28.3445 45.1468 28.1574 45.1012C28.1518 44.5023 28.1352 43.8855 28.179 43.2895L31.7799 43.2916C31.7883 42.7535 31.7796 42.2153 31.7535 41.6778C32.2133 41.7231 33.2138 41.6907 33.7333 41.6893C33.7189 41.1106 33.7416 40.4595 33.7489 39.8756C34.3936 39.9007 35.039 39.903 35.6838 39.8825C35.6804 39.3347 35.7225 38.6634 35.7527 38.1134L37.3124 38.1173C37.3037 37.4944 37.2987 36.6982 37.3743 36.0916C37.994 36.0692 38.5082 36.0268 39.1457 36.021C39.5837 35.9941 40.1637 36.0088 40.6124 36.0078C40.6577 35.4057 40.6541 34.7785 40.6603 34.1732Z" fill="#655D6C"/>
<path d="M40.6602 34.1732C41.0154 34.1764 41.2568 34.1859 41.6097 34.2238C41.5929 35.2292 41.5726 36.2429 41.5765 37.2478C41.5801 38.1696 41.6448 39.0688 41.5606 39.9919L40.6672 39.9871C40.669 40.5386 40.6654 41.0902 40.6564 41.6418C40.1692 41.6519 39.6182 41.6781 39.1392 41.6247C39.1319 42.2148 39.1214 42.8048 39.1078 43.3948C38.54 43.4297 38.0494 43.463 37.478 43.445L37.4717 45.072C34.5939 45.2024 31.6902 45.0961 28.8088 45.1369C28.6138 45.1397 28.3445 45.1468 28.1573 45.1012C28.6484 45.0507 30.1955 45.0768 30.7229 45.0779C32.3714 45.0877 34.0201 45.0871 35.6688 45.0759C35.6756 44.5208 35.6984 43.9659 35.7371 43.4121L37.3681 43.3885L37.3783 42.3552C37.4082 42.1832 37.4079 41.8696 37.4134 41.6846C37.9679 41.6845 38.5527 41.6208 39.1307 41.6119C39.1283 41.0578 39.1206 40.5036 39.1075 39.9496C39.0688 38.875 39.0976 37.0881 39.1457 36.021C39.5837 35.9941 40.1637 36.0088 40.6124 36.0078C40.6577 35.4057 40.654 34.7785 40.6602 34.1732Z" fill="#413D4E"/>
<path d="M37.4008 39.8713C38.0085 39.9373 38.4992 39.942 39.1075 39.9496C39.1206 40.5036 39.1283 41.0578 39.1307 41.6119C38.5527 41.6208 37.9679 41.6844 37.4134 41.6846C37.4079 41.8696 37.4082 42.1832 37.3784 42.3552C37.3255 41.7687 37.4166 40.5839 37.4008 39.8713Z" fill="#534B5E"/>
<path d="M37.5376 19.5976C38.0423 19.525 38.8734 19.5579 39.4096 19.5599C39.4489 20.8667 39.4035 22.3051 39.3624 23.6213C39.8172 23.6272 40.442 23.618 40.8793 23.6745C40.8845 25.811 40.7819 28.1832 40.8391 30.2781C41.1319 30.2909 41.3464 30.3024 41.6404 30.3452C41.6543 31.6283 41.6114 32.9333 41.6097 34.2238C41.2568 34.1859 41.0155 34.1764 40.6603 34.1731C40.6541 34.7785 40.6577 35.4057 40.6124 36.0078C40.1637 36.0088 39.5837 35.9941 39.1457 36.021C39.1416 35.4433 39.1273 34.8656 39.1027 34.2884C39.1788 30.7405 39.0914 27.1713 39.1559 23.5818C38.5667 23.5768 38.1294 23.5605 37.5391 23.5138C37.4951 22.274 37.5252 20.8439 37.5376 19.5976Z" fill="#655D6C"/>
<path d="M19.0076 41.6118L19.0369 41.6237C19.5494 41.6589 20.0632 41.672 20.5768 41.6628C20.5655 41.9612 20.4834 43.1058 20.6188 43.2877L20.648 43.3057C23.0838 43.2461 25.7275 43.2897 28.179 43.2895C28.1353 43.8856 28.1518 44.5024 28.1574 45.1012C25.2763 44.9888 21.9192 45.1168 19.0021 45.1222C18.9906 44.5434 19.0045 43.9779 19.0169 43.3997C17.854 43.4105 16.691 43.4076 15.5282 43.3911L15.4978 43.1946C15.4777 42.7177 15.4966 42.145 15.5047 41.6614C16.2947 41.5945 17.6908 41.747 18.3262 41.6193L19.0076 41.6118Z" fill="#413D4E"/>
<path d="M19.0369 41.6237C19.5494 41.6589 20.0631 41.672 20.5767 41.6628C20.5655 41.9612 20.4833 43.1058 20.6187 43.2877L20.6479 43.3057C20.4975 43.3635 19.2448 43.3714 19.0097 43.3774C18.9993 42.862 18.9705 42.1144 19.0369 41.6237Z" fill="#534B5E"/>
<path d="M13.6244 38.085C14.1992 38.072 14.7501 38.0925 15.3166 38.0874C15.9111 38.0902 16.6181 38.112 17.2018 38.0584C17.2007 38.6499 17.1853 39.3123 17.2218 39.8972C17.213 40.439 17.1867 41.0714 17.2004 41.6063C17.5891 41.6197 17.9374 41.6266 18.3262 41.6193C17.6908 41.7469 16.2947 41.5945 15.5047 41.6614C14.9112 41.6351 14.2344 41.659 13.6347 41.6668L13.633 39.924C13.6266 39.311 13.6237 38.698 13.6244 38.085Z" fill="#534B5E"/>
<path d="M11.7296 34.184C12.233 34.1565 13.1393 34.1018 13.6238 34.217C13.6149 34.8209 13.6181 35.4251 13.6333 36.029C13.6287 36.698 13.6109 37.4202 13.6244 38.085C13.6237 38.698 13.6266 39.311 13.633 39.924C13.0458 39.9 12.3244 39.93 11.728 39.9392C11.7167 38.6271 11.7166 37.315 11.7275 36.0029C11.7224 35.4007 11.7096 34.7849 11.7296 34.184Z" fill="#413D4E"/>
<path d="M11.7296 34.184C12.233 34.1565 13.1393 34.1018 13.6238 34.217C13.6149 34.8209 13.6181 35.4251 13.6333 36.029C12.9175 36.0478 12.4441 36.0405 11.7275 36.0029C11.7224 35.4007 11.7096 34.7849 11.7296 34.184Z" fill="#534B5E"/>
<path d="M11.7296 29.9414C12.2852 29.8709 13.0542 29.8722 13.6248 29.8844C13.6299 31.0963 13.697 33.07 13.6238 34.217C13.1393 34.1018 12.233 34.1565 11.7296 34.184C11.7216 32.7698 11.7216 31.3555 11.7296 29.9414Z" fill="#655D6C"/>
<path d="M33.755 13.6256C34.3509 13.6251 34.9297 13.6272 35.5256 13.5966L35.5336 15.6425C36.1198 15.6438 36.7816 15.6596 37.3619 15.6444C37.3618 16.257 37.3279 17.2714 37.4608 17.8393C36.9473 17.87 36.0412 17.8346 35.5016 17.8321L35.5314 15.635C34.9248 15.6523 34.3504 15.6859 33.7399 15.6791C33.7416 15.0891 33.8054 14.1795 33.755 13.6256Z" fill="#655D6C"/>
<path d="M13.6237 34.217C14.1845 34.2674 14.7459 34.2353 15.3064 34.2491C15.308 35.3222 15.255 37.0743 15.3166 38.0874C14.75 38.0925 14.1992 38.072 13.6244 38.085C13.6108 37.4202 13.6287 36.6981 13.6333 36.029C13.618 35.4251 13.6149 34.821 13.6237 34.217Z" fill="#655D6C"/>
<path d="M17.2218 39.8972C17.8095 39.8831 18.3975 39.8772 18.9854 39.8796C18.9901 40.4432 18.9833 41.0521 19.0075 41.6117L18.3262 41.6193C17.9374 41.6267 17.5891 41.6197 17.2004 41.6063C17.1867 41.0715 17.213 40.439 17.2218 39.8972Z" fill="#655D6C"/>
<path d="M39.1027 34.2884C39.1273 34.8656 39.1416 35.4433 39.1457 36.021C38.5082 36.0268 37.994 36.0692 37.3743 36.0916C37.3428 35.7076 37.3772 34.7177 37.382 34.29C38.0508 34.3165 38.4272 34.3596 39.1027 34.2884Z" fill="#7A747E"/>
<path d="M25.4542 19.5785C27.5262 19.5749 29.6626 19.5455 31.7295 19.5892C31.724 20.2839 31.7233 20.9785 31.7273 21.6733L33.4113 21.6717L33.4104 25.7964C32.2779 25.8219 31.0431 25.8002 29.9028 25.8052C29.8929 25.1515 29.9107 24.4506 29.9167 23.793C28.0252 23.7772 26.1337 23.7782 24.2423 23.7959C24.234 24.4808 24.2335 25.1658 24.2409 25.8507L22.4424 25.8694C22.3957 28.5262 22.3843 31.1836 22.4083 33.8407L24.2366 33.8459C24.2305 34.5527 24.2328 35.2595 24.2437 35.9662L29.8994 35.9723C29.9044 35.3397 29.9015 34.7071 29.8908 34.0746C29.8789 33.4185 29.9011 32.735 29.8992 32.0776C29.3238 32.0736 30.4746 32.0756 29.8992 32.0776C29.8792 31.4346 29.894 30.7074 29.8931 30.0579L26.259 30.063C26.2895 29.3733 26.265 28.5864 26.2551 27.8924L27.441 27.9027L32.3715 27.9041C33.2942 27.9047 34.3949 27.9313 35.3033 27.8816C35.2952 28.6042 35.2914 29.327 35.2919 30.0496L33.6043 30.0548C33.6606 32.0073 33.5924 34.0504 33.5738 36.0071C33.1594 35.9647 32.1977 35.9886 31.7398 35.9886L31.7315 38.0926L29.8277 38.0903L29.8303 39.8839C28.1266 39.9358 26.1892 39.8804 24.4605 39.8806L24.458 37.9944C23.8076 37.9918 23.2252 37.9905 22.5748 38.0282L22.5637 36.2001C21.941 36.188 21.3002 36.1969 20.6762 36.1979C20.6951 35.5248 20.7166 34.9185 20.6809 34.2451L19.0031 34.241C18.9615 33.2186 18.9903 32.0321 18.9897 30.9968C18.982 29.3073 18.9858 27.6179 19.0013 25.9286L20.6671 25.92C20.6644 25.1999 20.6699 24.4798 20.6833 23.7598L22.3495 23.7446L22.3542 21.6873L24.0171 21.666C23.9975 21.0093 24.0157 20.2565 24.0161 19.5922L25.4542 19.5785Z" fill="#15203B"/>
<path d="M5.6681 43.3319C7.06224 43.3221 8.45643 43.3253 9.85046 43.3415C10.0115 43.8081 9.75013 44.6316 9.93933 44.9867L9.94849 45.0219L10.7694 45.0251C11.1757 45.0835 11.4971 45.0803 11.9072 45.0629C11.9066 45.3474 11.9305 46.5073 11.7945 46.6817C11.8803 46.8327 11.8525 47.0767 11.849 47.261C11.8826 47.0759 11.9104 46.8899 11.9326 46.7031L13.589 46.6973L15.8691 46.706C15.9679 47.0122 15.9177 48.0121 15.9072 48.3662C16.3928 48.3473 17.1193 48.2974 17.5923 48.3154L17.5919 46.7043C19.0018 46.7023 20.4917 46.68 21.8947 46.7184C25.1297 46.8046 28.5209 46.5686 31.7384 46.7075C32.3465 46.7047 35.7592 46.6274 36.1194 46.729L37.7909 46.7117C38.9656 46.6989 40.3897 46.6673 41.5599 46.7108C41.558 47.2545 41.551 47.7981 41.5392 48.3416L41.5083 48.3701C41.6108 48.6659 41.4669 49.5444 41.5113 50.0417C42.0818 50.0437 42.6625 50.0517 43.232 50.0459C43.239 50.5074 43.2544 51.5219 43.1915 51.9586L47.3945 51.9636C48.0188 51.9635 48.9112 51.9338 49.5179 51.9622C49.747 52.0072 50.2695 52.0068 50.5293 52.0129C50.4918 52.4072 50.5136 53.0351 50.5163 53.448C48.9751 53.47 47.4337 53.4781 45.8923 53.4723C45.137 53.4729 43.9211 53.4415 43.2038 53.5414L43.1841 54.2616L27.334 54.2844C24.1356 54.2714 20.9371 54.2774 17.7388 54.3025C17.6702 54.061 17.6447 53.7904 17.613 53.5398C16.7756 53.415 14.5273 53.476 13.5346 53.4782L5.89181 53.465L5.96834 51.8617C6.5199 51.8799 7.07436 51.9053 7.62563 51.8851C7.1987 51.8041 6.22557 51.8973 5.97767 51.7865C5.60788 51.7046 4.49636 51.7158 4.07019 51.7111C4.07805 51.2768 4.10297 50.4564 4.16092 50.0465C4.2198 49.7001 4.09189 47.2931 4.07885 46.7326C4.08103 46.1825 4.04735 45.6362 4.05247 45.0843C4.59611 45.0399 5.09685 45.0309 5.64034 45.0207L5.6681 43.3319Z" fill="#101732"/>
<path d="M5.6681 43.3319C7.06224 43.3221 8.45643 43.3253 9.85046 43.3415C10.0115 43.8081 9.75013 44.6316 9.93933 44.9867L9.94849 45.0219L10.7694 45.0251C11.1757 45.0835 11.4971 45.0803 11.9072 45.0629C11.9066 45.3474 11.9305 46.5073 11.7945 46.6817C11.8803 46.8327 11.8525 47.0767 11.849 47.261C11.8826 47.0759 11.9104 46.8899 11.9326 46.7031L13.589 46.6973L15.8691 46.706C15.9679 47.0122 15.9177 48.0121 15.9072 48.3662C16.3928 48.3473 17.1193 48.2974 17.5923 48.3154L17.5919 46.7043C19.0018 46.7023 20.4917 46.68 21.8947 46.7184C25.1297 46.8046 28.5209 46.5686 31.7384 46.7075L31.7155 46.7547C31.5982 47.0164 31.6444 48.0232 31.6494 48.3502C31.4593 48.3575 31.2284 48.36 31.0427 48.3755C31.3183 48.4233 31.4444 48.4312 31.7248 48.4349L31.7327 50.0651C30.4986 50.0308 29.1922 50.056 27.953 50.0607C27.3692 50.0305 26.8038 50.0468 26.2203 50.0577C26.207 50.6719 26.1855 51.3379 26.2303 51.9473C23.3923 51.9585 20.483 51.914 17.6559 51.9608L17.6538 50.0337C17.0756 50.0484 16.4972 50.0552 15.9187 50.0543C15.912 50.6627 15.8979 51.2856 15.9098 51.8927C13.1757 51.8928 10.3437 51.9441 7.62563 51.8851C7.1987 51.8041 6.22557 51.8973 5.97767 51.7865C5.60788 51.7046 4.49636 51.7158 4.07019 51.7111C4.07805 51.2768 4.10297 50.4564 4.16092 50.0465C4.2198 49.7001 4.09189 47.2931 4.07885 46.7326C4.08103 46.1825 4.04735 45.6362 4.05247 45.0843C4.59611 45.0399 5.09685 45.0309 5.64033 45.0207L5.6681 43.3319Z" fill="#2D2A41"/>
<path d="M5.6681 43.3319C7.06224 43.3221 8.45643 43.3253 9.85046 43.3415C10.0115 43.8081 9.75013 44.6316 9.93933 44.9867L9.94849 45.0219L10.7694 45.0251C11.1757 45.0835 11.4971 45.0803 11.9072 45.0629C11.9066 45.3474 11.9305 46.5073 11.7945 46.6817C9.31471 46.7962 6.53252 46.5819 4.07885 46.7326C4.08103 46.1825 4.04735 45.6362 4.05247 45.0843C4.59611 45.0399 5.09685 45.0309 5.64034 45.0207L5.6681 43.3319Z" fill="#655D6C"/>
<path d="M5.66811 43.3319C7.06225 43.3221 8.45644 43.3253 9.85047 43.3415C10.0115 43.8081 9.75015 44.6316 9.93934 44.9867L9.9485 45.0219C8.64067 45.0796 6.94584 45.0416 5.64035 45.0207L5.66811 43.3319Z" fill="#534B5E"/>
<path d="M17.5919 46.7044C19.0018 46.7024 20.4917 46.68 21.8947 46.7184L21.9128 48.3802C23.3493 48.402 24.782 48.3787 26.2143 48.4019C26.2074 48.9333 26.1879 49.5173 26.2073 50.0442L21.9005 50.0534L21.9143 48.3781L20.3298 48.3865C19.8678 48.3676 17.8651 48.4987 17.5923 48.3155L17.5919 46.7044Z" fill="#655D6C"/>
<path d="M13.5889 46.6973L15.8691 46.706C15.9679 47.0123 15.9177 48.0121 15.9072 48.3662C14.6138 48.4083 13.1869 48.3815 11.8857 48.37L11.8564 48.3417C11.8379 48.0346 11.8502 47.5793 11.849 47.261C11.8826 47.0759 11.9104 46.8899 11.9325 46.7031L13.5889 46.6973Z" fill="#655D6C"/>
<path d="M27.9878 48.3779C29.0094 48.3968 30.0213 48.3802 31.0427 48.3756C31.3183 48.4233 31.4444 48.4312 31.7248 48.4349L31.7327 50.0652C30.4987 50.0308 29.1922 50.056 27.953 50.0607C27.9694 49.4999 27.981 48.9389 27.9878 48.3779Z" fill="#534B5E"/>
<path d="M4.16091 50.0465C4.75635 50.0096 5.35274 49.9903 5.94934 49.9887C5.98336 50.6009 5.97979 51.1745 5.97767 51.7865C5.60788 51.7046 4.49636 51.7159 4.07019 51.7111C4.07805 51.2769 4.10297 50.4564 4.16091 50.0465Z" fill="#101732"/>
<path d="M11.8563 48.3417L11.8857 48.3701C11.8553 48.9302 11.8376 49.491 11.8324 50.0519C11.2098 50.0571 10.5871 50.0591 9.96439 50.058C9.99327 49.6623 9.95227 48.8426 9.94272 48.4148C10.4365 48.397 11.4182 48.419 11.8563 48.3417Z" fill="#413D4E"/>
<path d="M20.3298 48.3865L21.9143 48.3781L21.9005 50.0534L20.2815 50.0517C20.2883 49.4883 20.3396 48.9642 20.3298 48.3865Z" fill="#413D4E"/>
<path d="M36.1194 46.729L37.7909 46.7118C38.9656 46.699 40.3897 46.6673 41.5599 46.7108C41.558 47.2545 41.551 47.7982 41.5392 48.3417L41.5083 48.3701C41.6108 48.6659 41.4669 49.5444 41.5113 50.0418C41.4997 50.6564 41.4815 51.2801 41.4932 51.8941L39.6333 51.8848C39.0354 51.8873 38.4375 51.8863 37.8396 51.8819C37.8418 51.6541 37.8261 51.4208 37.814 51.1927L37.8266 50.0521L36.0295 50.0597C36.029 50.5982 36.0163 51.3674 36.0846 51.8827C33.3745 51.9001 30.6642 51.9033 27.954 51.8925L27.953 50.0607C29.1922 50.056 30.4987 50.0308 31.7327 50.0652L31.7248 48.4349C31.4444 48.4312 31.3183 48.4233 31.0427 48.3756C31.2284 48.3601 31.4593 48.3575 31.6494 48.3502C31.6444 48.0232 31.5982 47.0164 31.7155 46.7548L31.7384 46.7076C32.3465 46.7048 35.7592 46.6274 36.1194 46.729Z" fill="#2D2A41"/>
<path d="M31.7384 46.7076C32.3465 46.7048 35.7592 46.6274 36.1194 46.729C36.0881 47.2757 36.1116 47.8495 36.1241 48.3989C35.3271 48.4691 34.1822 48.437 33.366 48.4311C33.4109 49.0232 33.4023 49.4562 33.3875 50.0445C33.1567 50.0502 31.8747 50.0952 31.7327 50.0652L31.7248 48.4349C31.4444 48.4312 31.3183 48.4233 31.0427 48.3756C31.2284 48.3601 31.4593 48.3575 31.6494 48.3502C31.6444 48.0232 31.5982 47.0164 31.7155 46.7548L31.7384 46.7076Z" fill="#655D6C"/>
<path d="M31.6494 48.3502C31.6444 48.0232 31.5982 47.0164 31.7155 46.7547C31.7102 47.3055 31.7001 47.8414 31.733 48.3922L34.5752 48.3702C34.8875 48.3682 35.8491 48.3521 36.1241 48.3988C35.3271 48.4691 34.1822 48.4369 33.366 48.431C33.4109 49.0232 33.4023 49.4561 33.3875 50.0445C33.1567 50.0502 31.8747 50.0952 31.7327 50.0651L31.7248 48.4349C31.4444 48.4312 31.3183 48.4233 31.0427 48.3755C31.2284 48.36 31.4593 48.3575 31.6494 48.3502Z" fill="#413D4E"/>
<path d="M41.5083 48.3701C41.6108 48.6659 41.4669 49.5444 41.5113 50.0417C41.4997 50.6564 41.4815 51.2801 41.4933 51.8941L39.6333 51.8848C39.6775 51.4946 39.705 48.7073 39.663 48.3854C40.2781 48.3899 40.8933 48.3847 41.5083 48.3701Z" fill="#413D4E"/>
<path d="M37.7909 46.7117C38.9656 46.699 40.3897 46.6673 41.5599 46.7108C41.558 47.2545 41.551 47.7982 41.5392 48.3417L41.5083 48.3701C40.8933 48.3847 40.2781 48.3899 39.6629 48.3854C38.9964 48.3789 38.4355 48.3732 37.7695 48.42L37.7909 46.7117Z" fill="#655D6C"/>
<path d="M41.5113 50.0417C42.0818 50.0437 42.6625 50.0517 43.232 50.0459C43.239 50.5074 43.2544 51.5219 43.1915 51.9587C41.3825 51.9426 39.5734 51.942 37.7645 51.9569C37.7675 51.6604 37.7717 51.4919 37.814 51.1927C37.8261 51.4207 37.8417 51.6541 37.8396 51.8819C38.4375 51.8863 39.0354 51.8873 39.6333 51.8848L41.4932 51.8941C41.4815 51.2801 41.4997 50.6564 41.5113 50.0417Z" fill="#15203B"/>
<path d="M44.4553 31.5774C44.9146 31.7789 45.947 32.0451 46.4681 32.1919L46.4831 32.2308C47.0119 32.3758 47.797 32.6118 48.3191 32.6589L48.3577 32.7595C48.964 32.8373 49.4826 33.1235 50.0916 33.214L49.2712 36.1493C49.1563 36.5751 49.0037 37.2932 48.8541 37.6802C48.6813 38.3049 48.4347 39.3422 48.2334 39.9119C47.9606 40.8394 47.7016 41.7709 47.4567 42.7062C47.3979 42.924 47.1809 43.7936 47.115 43.9526C47.0331 44.3082 46.9598 44.6656 46.8951 45.0247C46.2384 45.0229 45.5309 45.0327 44.8784 45.0122C44.3465 44.981 43.5165 45.0196 42.9305 45.0056C43.0831 44.404 43.2087 43.7791 43.4139 43.1949C43.1087 42.9312 41.9228 42.4482 41.5122 42.4425C41.911 41.0084 42.2902 39.5689 42.6494 38.1244C42.8386 37.6412 43.0113 36.6993 43.2081 36.1177C43.2291 35.8814 43.6956 34.2661 43.8163 33.8879C44.0444 33.1734 44.2405 32.26 44.4553 31.5774Z" fill="#8A858C"/>
<path d="M46.5495 39.2815C47.0202 39.6042 47.6902 39.6654 48.2333 39.9119C47.9606 40.8394 47.7016 41.7709 47.4567 42.7062C47.3978 42.9239 47.1809 43.7936 47.1149 43.9526C47.0331 44.3081 46.9597 44.6656 46.895 45.0247C46.2384 45.0229 45.5309 45.0326 44.8784 45.0121C44.9886 44.5406 45.1606 43.8928 45.3326 43.4458C45.3551 43.2687 45.6191 42.4114 45.6883 42.1741C45.9677 41.2077 46.2548 40.2434 46.5495 39.2815Z" fill="#BFBCBE"/>
<path d="M45.3326 43.4459C45.8844 43.6018 46.5944 43.7662 47.1149 43.9526C47.0331 44.3082 46.9597 44.6656 46.895 45.0247C46.2384 45.0229 45.5309 45.0327 44.8784 45.0122C44.9886 44.5406 45.1606 43.8928 45.3326 43.4459Z" fill="#A9A5AB"/>
<path d="M44.4552 31.5774C44.9145 31.7789 45.947 32.0451 46.468 32.1919L46.483 32.2308C46.1074 33.3325 45.5339 35.4707 45.2233 36.646C44.4314 36.5046 43.9548 36.442 43.208 36.1177C43.229 35.8814 43.6955 34.2661 43.8163 33.8879C44.0443 33.1734 44.2404 32.26 44.4552 31.5774Z" fill="#EEECEC"/>
<path d="M42.6494 38.1244C43.3894 38.4623 43.8662 38.6074 44.662 38.7118C44.38 39.7452 44.0922 40.777 43.7988 41.8073C43.7019 42.151 43.4752 42.8678 43.4139 43.195C43.1087 42.9313 41.9228 42.4482 41.5122 42.4425C41.911 41.0084 42.2902 39.5689 42.6494 38.1244Z" fill="#EEECEC"/>
<path d="M48.3576 32.7595C48.9639 32.8373 49.4825 33.1235 50.0916 33.214L49.2711 36.1493C49.1563 36.5751 49.0036 37.2932 48.8541 37.6802C48.1093 37.6479 47.7437 37.5478 47.0161 37.3474C47.4883 35.8285 47.8826 34.2776 48.3576 32.7595Z" fill="#BFBCBE"/>
<path d="M42.6494 38.1244C42.8386 37.6412 43.0113 36.6993 43.2081 36.1177C43.9548 36.4421 44.4315 36.5046 45.2234 36.646C45.0162 37.3493 44.8234 37.9965 44.662 38.7117C43.8662 38.6074 43.3893 38.4623 42.6494 38.1244Z" fill="#BFBCBE"/>
<path d="M47.0161 37.3474C47.7437 37.5478 48.1093 37.6479 48.8541 37.6802C48.6812 38.3049 48.4347 39.3422 48.2333 39.9119C47.6902 39.6654 47.0202 39.6042 46.5495 39.2815C46.7249 38.6418 46.8805 37.9967 47.0161 37.3474Z" fill="#A9A5AB"/>
<path d="M49.0437 43.3487C49.5809 43.3541 50.2086 43.3758 50.7386 43.3622C50.7496 43.9586 50.7513 44.4345 50.7199 45.0336L52.4427 45.0181C52.4443 45.3795 52.4811 46.4236 52.3969 46.7208C52.354 46.9738 52.3368 49.7484 52.3529 50.0523C51.7371 50.0426 51.1211 50.0403 50.5052 50.0454C50.5023 50.6715 50.486 51.3498 50.5075 51.9715C50.1987 51.967 49.8211 51.9522 49.5179 51.9622C48.9112 51.9338 48.0188 51.9634 47.3945 51.9635L43.1915 51.9586C43.2544 51.5219 43.239 50.5074 43.232 50.0459C43.221 49.4903 43.2184 48.9347 43.224 48.3791C43.1898 47.9011 43.2196 47.2061 43.2103 46.6923L43.5968 46.6874C44.132 46.5907 46.2578 46.645 46.9216 46.6531C46.978 46.1084 46.9866 45.6238 46.9984 45.0788C47.5866 45.0809 48.1749 45.0728 48.7629 45.0544L48.9957 44.9892C49.0838 44.4624 49.0594 43.8829 49.0437 43.3487Z" fill="#2D2A41"/>
<path d="M49.0437 43.3487C49.5809 43.3541 50.2086 43.3758 50.7386 43.3622C50.7496 43.9586 50.7513 44.4345 50.7199 45.0336L52.4427 45.0181C52.4443 45.3795 52.4811 46.4236 52.3969 46.7208C51.2457 46.6758 49.8992 46.6886 48.7427 46.7108C48.7194 47.2197 48.6696 47.8779 48.6736 48.3762C46.8492 48.4137 45.0251 48.3464 43.224 48.3791C43.1898 47.9011 43.2196 47.2061 43.2103 46.6923L43.5968 46.6874C44.132 46.5907 46.2577 46.645 46.9216 46.6531C46.978 46.1084 46.9865 45.6238 46.9984 45.0788C47.5866 45.0809 48.1749 45.0728 48.7629 45.0544L48.9957 44.9892C49.0838 44.4624 49.0594 43.8829 49.0437 43.3487Z" fill="#534B5E"/>
<path d="M46.9984 45.0788C47.5867 45.0809 48.1749 45.0728 48.763 45.0544C48.74 45.5931 48.722 46.132 48.7088 46.671C47.074 46.7332 45.2471 46.6876 43.5968 46.6874C44.132 46.5907 46.2578 46.645 46.9217 46.6531C46.978 46.1084 46.9866 45.6238 46.9984 45.0788Z" fill="#2D2A41"/>
<path d="M49.0437 43.3487C49.5809 43.3541 50.2087 43.3758 50.7386 43.3622C50.7497 43.9586 50.7513 44.4345 50.7199 45.0336C50.2985 45.0404 49.3853 45.0413 48.9957 44.9892C49.0839 44.4624 49.0594 43.8829 49.0437 43.3487Z" fill="#413D4E"/>
<path d="M49.1475 19.7602C49.4875 19.8529 50.4473 20.1168 50.7414 20.2433L50.8064 20.284C51.3755 20.3648 52.0046 20.6278 52.4561 20.6939C52.3753 21.0472 52.1225 22.2168 51.9881 22.4912L51.4778 24.4201C51.3048 25.103 51.144 25.7586 50.9273 26.4296C50.8073 26.9221 50.5007 27.8977 50.4242 28.3167L50.3829 28.3164C50.183 28.8823 49.9699 29.4615 49.7785 30.0285C49.6021 29.9822 49.5312 29.9548 49.3665 29.8851C49.0059 29.8006 48.6446 29.7196 48.2824 29.6421C47.8992 29.4933 47.7061 29.41 47.3013 29.3426C47.1043 29.2735 46.9059 29.2087 46.7063 29.1481C46.7291 28.6817 46.9838 27.9786 47.0408 27.3803L47.0818 27.3785C47.2701 26.8386 47.4374 26.0695 47.6109 25.488C47.8986 24.2704 48.3467 22.8129 48.6919 21.5909C48.8428 21.0862 49.1179 20.2622 49.1475 19.7602Z" fill="#332828"/>
<path d="M49.7905 24.0747C50.3492 24.1622 50.9252 24.2936 51.4778 24.4201C51.3048 25.103 51.144 25.7586 50.9273 26.4296C50.8073 26.9221 50.5007 27.8976 50.4242 28.3167L50.3829 28.3164C50.183 28.8823 49.9699 29.4615 49.7785 30.0284C49.6021 29.9822 49.5312 29.9548 49.3665 29.8851C49.0059 29.8006 48.6446 29.7196 48.2824 29.6421C47.8992 29.4933 47.7061 29.41 47.3013 29.3426C47.1043 29.2735 46.9059 29.2087 46.7063 29.148C46.7291 28.6817 46.9838 27.9786 47.0408 27.3803L47.0818 27.3785C47.2701 26.8385 47.4374 26.0695 47.6109 25.488C47.6784 25.5433 47.6758 25.5623 47.741 25.5629C48.1743 25.5666 48.8881 25.8973 49.2931 25.9259C49.4477 25.4662 49.6804 24.5551 49.7905 24.0747Z" fill="#44312E"/>
<path d="M47.0818 27.3785C47.6459 27.574 48.2485 27.6655 48.7365 27.8348L48.7796 27.8437C49.2747 28.0363 50.0141 28.1528 50.3829 28.3164C50.183 28.8823 49.9699 29.4615 49.7785 30.0284C49.6021 29.9822 49.5312 29.9548 49.3665 29.8851C49.0059 29.8006 48.6446 29.7196 48.2824 29.6421C47.8992 29.4933 47.7061 29.41 47.3013 29.3426C47.1043 29.2735 46.9059 29.2087 46.7063 29.148C46.7291 28.6817 46.9838 27.9786 47.0408 27.3803L47.0818 27.3785Z" fill="#8A858C"/>
<path d="M48.7365 27.8348L48.7796 27.8437C49.2747 28.0363 50.0141 28.1528 50.3829 28.3164C50.1831 28.8823 49.9699 29.4615 49.7785 30.0285C49.6021 29.9822 49.5312 29.9548 49.3665 29.8851C49.0059 29.8006 48.6446 29.7196 48.2824 29.6421C48.4502 29.0439 48.6016 28.4412 48.7365 27.8348Z" fill="#655D6C"/>
<path d="M49.3052 25.9629C49.8372 26.1138 50.4153 26.2343 50.9273 26.4296C50.8074 26.9221 50.5007 27.8976 50.4243 28.3167L50.3829 28.3163C50.0142 28.1528 49.2747 28.0362 48.7796 27.8436C49.1012 27.3261 49.1069 26.2386 49.3052 25.9629Z" fill="#332828"/>
<path d="M48.6919 21.5909C49.2483 21.7144 49.8025 21.8838 50.3504 22.0432C50.1717 22.7587 50.0089 23.3677 49.7905 24.0747C49.6804 24.5551 49.4477 25.4662 49.2932 25.9259C48.8881 25.8972 48.1744 25.5666 47.741 25.5629C47.6758 25.5623 47.6784 25.5433 47.6109 25.488C47.8986 24.2704 48.3467 22.8129 48.6919 21.5909Z" fill="#5B3F37"/>
<path d="M50.8064 20.2839C51.3755 20.3648 52.0046 20.6278 52.4561 20.6938C52.3753 21.0472 52.1225 22.2167 51.9881 22.4912C51.5494 22.4184 50.8974 22.1519 50.3987 22.0476C50.5463 21.4625 50.6822 20.8745 50.8064 20.2839Z" fill="#2D2A41"/>
<path d="M50.4243 28.3167C51.5488 28.5563 53.175 29.0989 54.1574 29.2612L53.7576 31.0985C53.6676 31.5785 53.5432 32.0538 53.4247 32.5277C52.9394 32.3947 52.3842 32.2565 51.9184 32.0814C51.3814 31.8837 51.1229 31.7611 50.5536 31.6754L50.5193 31.7318C50.4543 31.9526 50.159 33.0585 50.0916 33.214C49.4825 33.1235 48.9639 32.8373 48.3576 32.7595L48.3191 32.6589C47.797 32.6118 47.0119 32.3758 46.4831 32.2308L46.4681 32.1919C45.947 32.0451 44.9146 31.7788 44.4553 31.5774C44.5505 31.3796 44.6898 30.5088 44.8527 30.105L44.8389 30.062C45.0192 29.5449 45.1526 29.3172 45.256 28.7583C45.5257 28.8408 46.4891 29.1642 46.7063 29.148C46.906 29.2086 47.1043 29.2735 47.3013 29.3426C47.7061 29.41 47.8992 29.4933 48.2824 29.6421C48.6446 29.7196 49.0059 29.8006 49.3665 29.885C49.5312 29.9548 49.6021 29.9822 49.7785 30.0284C49.9699 29.4615 50.1831 28.8823 50.3829 28.3163L50.4243 28.3167Z" fill="#413D4E"/>
<path d="M50.4243 28.3167C51.5488 28.5563 53.1751 29.0989 54.1575 29.2612L53.7576 31.0985C53.6676 31.5785 53.5432 32.0538 53.4247 32.5277C52.9394 32.3947 52.3843 32.2565 51.9184 32.0814C52.1208 31.5414 52.2112 31.2832 52.2271 30.709C51.7559 30.5831 51.2887 30.4425 50.8264 30.2873C50.6196 30.2644 50.0091 30.0894 49.7785 30.0284C49.9699 29.4615 50.1831 28.8823 50.3829 28.3163L50.4243 28.3167Z" fill="#8A858C"/>
<path d="M52.2271 30.709C52.751 30.7846 53.2423 30.9817 53.7576 31.0985C53.6676 31.5785 53.5432 32.0539 53.4248 32.5277C52.9394 32.3947 52.3843 32.2565 51.9184 32.0814C52.1208 31.5414 52.2112 31.2832 52.2271 30.709Z" fill="#413D4E"/>
<path d="M45.256 28.7583C45.5257 28.8408 46.4891 29.1642 46.7063 29.148C46.906 29.2086 47.1043 29.2735 47.3013 29.3426C47.1132 29.7604 46.9904 30.2377 46.801 30.6338L46.8837 30.6877C46.7573 31.1849 46.6344 31.7086 46.4681 32.1919C45.947 32.0451 44.9146 31.7788 44.4553 31.5774C44.5505 31.3796 44.6898 30.5088 44.8527 30.105L44.8389 30.0619C45.0192 29.5449 45.1526 29.3172 45.256 28.7583Z" fill="#BFBCBE"/>
<path d="M45.2561 28.7583C45.5257 28.8408 46.4891 29.1642 46.7063 29.148C46.906 29.2086 47.1043 29.2735 47.3013 29.3426C47.1132 29.7604 46.9904 30.2377 46.8011 30.6338C46.1489 30.4679 45.4994 30.2916 44.8528 30.105L44.8389 30.0619C45.0192 29.5449 45.1527 29.3172 45.2561 28.7583Z" fill="#413D4E"/>
<path d="M47.3013 29.3426C47.7061 29.41 47.8992 29.4933 48.2824 29.6421C48.6446 29.7196 49.0059 29.8006 49.3665 29.885C49.0631 30.2938 48.9282 30.6787 48.7358 31.1481L48.8354 31.1857C48.6328 31.5211 48.5906 32.1515 48.3191 32.6588C47.797 32.6118 47.0119 32.3758 46.4831 32.2308L46.4681 32.1919C46.6344 31.7086 46.7573 31.1849 46.8837 30.6877L46.8011 30.6338C46.9904 30.2377 47.1132 29.7604 47.3013 29.3426Z" fill="#655D6C"/>
<path d="M47.3012 29.3426C47.7061 29.41 47.8992 29.4933 48.2824 29.6421C48.6446 29.7196 49.0059 29.8006 49.3665 29.885C49.0631 30.2938 48.9282 30.6787 48.7358 31.1481C48.1618 30.9927 47.4606 30.7824 46.8837 30.6877L46.801 30.6338C46.9903 30.2377 47.1132 29.7604 47.3012 29.3426Z" fill="#2D2A41"/>
<path d="M48.8354 31.1857C49.1187 31.2621 50.3568 31.5689 50.491 31.6734L50.5193 31.7318C50.4542 31.9526 50.159 33.0585 50.0916 33.214C49.4825 33.1235 48.9639 32.8373 48.3576 32.7595L48.3191 32.6589C48.5905 32.1515 48.6328 31.5211 48.8354 31.1857Z" fill="#A9A5AB"/>
<path d="M50.8263 30.2873C51.2887 30.4425 51.7558 30.5831 52.227 30.709C52.2112 31.2832 52.1208 31.5414 51.9183 32.0814C51.3814 31.8837 51.1229 31.7611 50.5535 31.6754C50.5775 31.408 50.6818 30.4553 50.8263 30.2873Z" fill="#2D2A41"/>
<path d="M9.83091 41.6243C10.5074 41.6218 11.2252 41.6064 11.8979 41.6372C11.9284 42.2419 11.9575 42.801 11.9503 43.408C12.3841 43.4595 15.1696 43.5054 15.4552 43.3512L15.4978 43.1946L15.5282 43.3911C15.4904 44.3348 15.632 44.9161 15.7712 45.849C15.8069 46.0886 15.7815 46.514 15.8691 46.7061L13.589 46.6973L11.9326 46.7031C11.9104 46.8899 11.8826 47.076 11.849 47.261C11.8525 47.0767 11.8803 46.8327 11.7945 46.6818C11.9305 46.5074 11.9066 45.3474 11.9072 45.0629C11.4971 45.0803 11.1757 45.0835 10.7694 45.0251L9.94849 45.0219L9.93933 44.9868C9.75013 44.6317 10.0115 43.8081 9.85046 43.3415C9.82096 42.7592 9.82688 42.2062 9.83091 41.6243Z" fill="#2D2A41"/>
<path d="M9.83091 41.6243C10.5074 41.6218 11.2252 41.6064 11.8979 41.6372C11.9284 42.2419 11.9575 42.801 11.9503 43.408C11.4252 43.3831 10.4701 43.362 9.96234 43.419C9.94899 43.9415 9.94134 44.4641 9.93933 44.9868C9.75013 44.6317 10.0115 43.8081 9.85046 43.3415C9.82096 42.7592 9.82688 42.2062 9.83091 41.6243Z" fill="#413D4E"/>
<path d="M10.7694 45.0251C11.7596 44.9604 12.636 45.1222 13.627 45.0627L13.5889 46.6973L11.9325 46.7031C11.9104 46.8899 11.8825 47.0759 11.849 47.261C11.8524 47.0767 11.8803 46.8327 11.7945 46.6817C11.9305 46.5073 11.9066 45.3474 11.9072 45.0629C11.4971 45.0803 11.1757 45.0835 10.7694 45.0251Z" fill="#413D4E"/>
<path d="M43.2593 26.3464C44.3949 26.7291 45.8548 27.0407 47.0409 27.3803C46.9838 27.9786 46.7292 28.6817 46.7063 29.1481C46.4892 29.1643 45.5257 28.8408 45.2561 28.7583C45.1527 29.3173 45.0192 29.5449 44.8389 30.062C44.5976 30.0371 43.8218 29.7794 43.5455 29.7075C43.2431 29.7074 42.7712 29.5557 42.4791 29.4665C42.5883 28.8774 42.7124 28.6186 42.8258 28.114C42.7531 27.8743 43.1667 26.6375 43.2593 26.3464Z" fill="#A9A5AB"/>
<path d="M42.8258 28.114C43.1284 28.2063 43.4843 28.3255 43.7887 28.3928C44.2759 28.5222 44.7651 28.644 45.2561 28.7583C45.1527 29.3172 45.0192 29.5449 44.8389 30.062C44.5976 30.0371 43.8218 29.7794 43.5455 29.7075C43.2431 29.7074 42.7712 29.5557 42.4791 29.4664C42.5883 28.8774 42.7124 28.6186 42.8258 28.114Z" fill="#2D2A41"/>
<path d="M42.8258 28.114C43.1284 28.2063 43.4843 28.3255 43.7887 28.3928C43.6617 28.8276 43.6771 29.2556 43.5455 29.7075C43.2431 29.7074 42.7712 29.5557 42.4791 29.4664C42.5883 28.8774 42.7124 28.6186 42.8258 28.114Z" fill="#413D4E"/>
<path d="M47.9967 17.3861C48.3539 17.4456 49.4741 17.8018 49.74 17.731L49.7981 17.5778C49.8279 17.7288 49.8156 17.8179 49.9658 17.8912C50.3756 18.091 50.991 18.2121 51.4404 18.3403C51.0805 18.6393 51.1159 20.0656 50.7414 20.2433C50.4473 20.1168 49.4876 19.8529 49.1475 19.7602C48.7168 19.6797 47.9999 19.4545 47.5596 19.3285C47.7202 18.8097 47.9051 17.9138 47.9967 17.3861Z" fill="#8A858C"/>
<path d="M51.4404 18.3403C51.6292 18.4051 51.8238 18.4747 52.0142 18.5325C52.2201 18.5891 52.8664 18.7844 53.0339 18.7632C53.469 18.9703 54.0439 19.0625 54.5195 19.1944C54.3647 19.8425 54.2033 20.5477 54.0062 21.1821C53.5081 20.9654 52.9886 20.8018 52.4562 20.6939C52.0046 20.6278 51.3756 20.3648 50.8064 20.284L50.7415 20.2433C51.1159 20.0656 51.0805 18.6393 51.4404 18.3403Z" fill="#413D4E"/>
<path d="M41.5599 46.7108C41.937 46.7045 42.8776 46.6627 43.2103 46.6924C43.2196 47.2061 43.1898 47.9011 43.224 48.3791C43.2184 48.9347 43.221 49.4903 43.232 50.0459C42.6625 50.0517 42.0818 50.0437 41.5113 50.0417C41.4669 49.5444 41.6108 48.6659 41.5083 48.3701L41.5392 48.3417C41.551 47.7981 41.558 47.2545 41.5599 46.7108Z" fill="#413D4E"/>
<path d="M41.5599 46.7108C41.937 46.7045 42.8776 46.6627 43.2103 46.6924C43.2196 47.2061 43.1898 47.9011 43.224 48.3791C42.842 48.3862 41.8709 48.4152 41.5392 48.3417C41.5511 47.7981 41.558 47.2545 41.5599 46.7108Z" fill="#2D2A41"/>
<path d="M50.11 16.2797C50.7846 16.4847 51.6104 16.6906 52.3099 16.8932C52.6692 16.9406 53.0224 17.0264 53.3634 17.1491C53.2836 17.551 53.0699 18.4128 53.0339 18.7632C52.8663 18.7844 52.22 18.5891 52.0141 18.5325C51.8237 18.4747 51.6292 18.4051 51.4404 18.3403C50.991 18.2121 50.3756 18.091 49.9658 17.8912C49.8155 17.8179 49.8278 17.7288 49.7981 17.5778C49.8273 17.3393 50.0412 16.5639 50.11 16.2797Z" fill="#A9A5AB"/>
<path d="M52.3099 16.8932C52.6693 16.9406 53.0225 17.0264 53.3635 17.1491C53.2836 17.551 53.07 18.4128 53.0339 18.7632C52.8664 18.7844 52.2201 18.5891 52.0142 18.5325L52.0946 18.4818C52.1743 18.3416 52.2706 17.1847 52.3099 16.8932Z" fill="#8A858C"/>
<path d="M41.5122 42.4424C41.9228 42.4482 43.1087 42.9312 43.4139 43.1949C43.2087 43.779 43.083 44.404 42.9305 45.0056C42.2425 45.0347 41.5299 45.0232 40.8397 45.0216C41.0727 44.1643 41.2968 43.3045 41.5122 42.4424Z" fill="#BFBCBE"/>
<rect x="9.10001" y="16.9" width="1.3" height="1.3" fill="#FAC775"/>
<rect x="9.10001" y="18.2" width="1.3" height="1.3" fill="#FAC775"/>
<rect x="10.4" y="16.9" width="1.3" height="1.3" fill="#FAC775"/>
<rect x="9.10001" y="15.6" width="1.3" height="1.3" fill="#FAC775"/>
<rect x="7.79999" y="16.9" width="1.3" height="1.3" fill="#FAC775"/>
<path d="M65.6057 30.6V24.9944H62.8029V10.9804H65.6057V8.1776H68.4085V5.3748H85.2253V13.7832H79.6197V10.9804H71.2113V24.9944H74.0141V27.7972H76.8169V22.1916H74.0141V19.3888H88.0281V22.1916H85.2253V30.6H79.6197V33.4028H71.2113V30.6H65.6057ZM91.8869 30.8288V29.0608H90.0565V22.6752H91.8869V20.8864H98.2101V22.6752H100.061V28H101.912V30.8288H99.2501V29.0608H98.2101V30.8288H91.8869ZM92.6981 28H97.3989V23.7152H92.6981V28ZM104.458 30.8288V22.6752H106.288V20.8864H112.612V22.6752H114.463V25.4832H111.8V23.7152H107.1V30.8288H104.458ZM116.361 30.8288V22.6752H118.192V20.8864H124.515V22.6752H126.366V25.4832H123.704V23.7152H119.003V30.8288H116.361ZM128.894 30.8288V20.8864H131.536V30.8288H128.894ZM128.894 20.1792V17.3296H131.536V20.1792H128.894ZM134.074 30.8288V28H141.416V27.272H135.904V25.4832H134.074V22.6752H135.904V20.8864H144.078V23.7152H136.715V24.4224H142.227V26.2112H144.078V29.0608H142.227V30.8288H134.074ZM148.031 30.8288V29.0608H146.2V22.6752H148.031V20.8864H154.354V22.6752H156.205V29.0608H154.354V30.8288H148.031ZM148.842 28H153.543V23.7152H148.842V28ZM158.733 30.8288V20.8864H166.887V22.6752H168.738V30.8288H166.075V23.7152H161.375V30.8288H158.733Z" fill="#EEF1F6"/>
<path d="M64.4528 46.7248V45.7888H63.5064V40.984H64.4528V40.0376H67.3856V40.984H68.3424V42.96H67.2816V41.088H64.5568V45.6848H67.2816V44.8424H66.3456V43.896H65.3888V42.8664H66.4496V43.792H68.3424V45.7888H67.3856V46.7248H64.4528ZM70.5466 46.7248V45.7888H69.6002V41.92H70.6506V45.6848H73.3754V41.92H74.4362V45.7888H73.4794V46.7248H70.5466ZM76.4372 46.7248V45.7888H75.4908V42.8664H76.4372V41.92H79.37V42.8664H80.3268V45.6848H81.2732V46.7248H80.2228V45.7888H79.37V46.7248H76.4372ZM76.5412 45.6848H79.266V42.96H76.5412V45.6848ZM82.5291 46.7248V42.8664H83.4755V41.92H86.4083V42.8664H87.3651V43.896H86.3043V42.96H83.5795V46.7248H82.5291ZM89.2544 46.7248V45.7888H88.308V42.8664H89.2544V41.92H92.0936V40.0376H93.144V45.7888H92.1872V46.7248H89.2544ZM89.3584 45.6848H92.0832V42.96H89.3584V45.6848ZM98.3662 46.7248V42.96H97.4302V42.024H96.4838V40.0376H97.5342V41.92H98.4702V42.8664H99.323V41.92H100.259V40.0376H101.32V42.024H100.363V42.96H99.427V46.7248H98.3662ZM102.793 46.7248V45.7888H101.846V42.8664H102.793V41.92H105.725V42.8664H106.682V45.7888H105.725V46.7248H102.793ZM102.897 45.6848H105.621V42.96H102.897V45.6848ZM108.886 46.7248V45.7888H107.94V41.92H108.99V45.6848H111.715V41.92H112.776V45.7888H111.819V46.7248H108.886ZM113.932 46.7248V42.8664H114.879V41.92H117.811V42.8664H118.768V43.896H117.707V42.96H114.983V46.7248H113.932ZM122.108 46.7248V40.0376H125.987V40.984H126.944V42.024H125.883V41.088H123.158V42.8664H125.051V43.896H123.158V46.7248H122.108ZM128.112 46.7248V45.7888H127.166V42.8664H128.112V41.92H131.045V42.8664H132.002V45.7888H131.045V46.7248H128.112ZM128.216 45.6848H130.941V42.96H128.216V45.6848ZM134.206 46.7248V45.7888H133.26V42.8664H134.206V41.92H137.139V42.8664H138.096V43.896H137.035V42.96H134.31V45.6848H137.035V44.7384H138.096V45.7888H137.139V46.7248H134.206ZM140.097 46.7248V45.7888H139.15V41.92H140.201V45.6848H142.925V41.92H143.986V45.7888H143.029V46.7248H140.097ZM145.142 46.7248V45.6848H148.918V44.8424H146.089V43.896H145.142V42.8664H146.089V41.92H149.978V42.96H146.193V43.792H149.022V44.7384H149.978V45.7888H149.022V46.7248H145.142ZM151.236 46.6V45.5496H152.287V46.6H151.236Z" fill="#FAC775"/>
</svg>
