<svg width="76" height="62" viewBox="0 0 76 62" fill="none" xmlns="http://www.w3.org/2000/svg">
<path d="M76 8.23529V21.9608H73.2727V24.7059H70.5455V27.451H67.8182V30.1961H65.0909V32.9412H62.3636V35.6863H59.6364V38.4314H56.9091V41.1765H54.1818V43.9216H51.4545V46.6667H48.7273V49.4118H43.2727V46.6667H40.5455V43.9216H37.8182V41.1765H35.0909V38.4314H32.3636V35.6863H29.6364V32.9412H26.9091V30.1961H24.1818V27.451H21.4545V24.7059H18.7273V21.9608H16V8.23529H18.7273V5.4902H21.4545V2.7451H24.1818V0H40.5455V2.7451H43.2727V5.4902H48.7273V2.7451H51.4545V0H67.8182V2.7451H70.5455V5.4902H73.2727V8.23529H76Z" fill="#E24B4A"/>
<path d="M44.6249 30.4419V26.8052H40.6494V23.7332H44.6249V19.6447H47.5162V23.7332H51.5143V26.8052H47.5162V30.4419H44.6249Z" fill="white"/>
<rect x="25.1764" y="4.94118" width="2.82353" height="2.82353" fill="#EEF1F6"/>
<rect x="25.1764" y="7.76471" width="2.82353" height="2.82353" fill="#EEF1F6"/>
<rect x="22.3529" y="7.76471" width="2.82353" height="2.82353" fill="#EEF1F6"/>
<rect x="28" y="4.94118" width="2.82353" height="2.82353" fill="#EEF1F6"/>
<rect x="22.3529" y="10.5882" width="2.82353" height="2.82353" fill="#EEF1F6"/>
<g filter="url(#filter0_d_94_650)">
<path d="M61 15.2353V28.9608H58.2727V31.7059H55.5455V34.451H52.8182V37.1961H50.0909V39.9412H47.3636V42.6863H44.6364V45.4314H41.9091V48.1765H39.1818V50.9216H36.4545V53.6667H33.7273V56.4118H28.2727V53.6667H25.5455V50.9216H22.8182V48.1765H20.0909V45.4314H17.3636V42.6863H14.6364V39.9412H11.9091V37.1961H9.18182V34.451H6.45455V31.7059H3.72727V28.9608H1V15.2353H3.72727V12.4902H6.45455V9.7451H9.18182V7H25.5455V9.7451H28.2727V12.4902H33.7273V9.7451H36.4545V7H52.8182V9.7451H55.5455V12.4902H58.2727V15.2353H61Z" fill="#E24B4A"/>
<path d="M29.6249 37.4419V33.8052H25.6494V30.7332H29.6249V26.6447H32.5162V30.7332H36.5143V33.8052H32.5162V37.4419H29.6249Z" fill="white"/>
<rect x="10.1764" y="11.9412" width="2.82353" height="2.82353" fill="#EEF1F6"/>
<rect x="10.1764" y="14.7647" width="2.82353" height="2.82353" fill="#EEF1F6"/>
<rect x="7.35291" y="14.7647" width="2.82353" height="2.82353" fill="#EEF1F6"/>
<rect x="13" y="11.9412" width="2.82353" height="2.82353" fill="#EEF1F6"/>
<rect x="7.35291" y="17.5882" width="2.82353" height="2.82353" fill="#EEF1F6"/>
</g>
<defs>
<filter id="filter0_d_94_650" x="0" y="4" width="68" height="57.4118" filterUnits="userSpaceOnUse" color-interpolation-filters="sRGB">
<feFlood flood-opacity="0" result="BackgroundImageFix"/>
<feColorMatrix in="SourceAlpha" type="matrix" values="0 0 0 0 0 0 0 0 0 0 0 0 0 0 0 0 0 0 127 0" result="hardAlpha"/>
<feOffset dx="3" dy="1"/>
<feGaussianBlur stdDeviation="2"/>
<feComposite in2="hardAlpha" operator="out"/>
<feColorMatrix type="matrix" values="0 0 0 0 0 0 0 0 0 0 0 0 0 0 0 0 0 0 0.05 0"/>
<feBlend mode="normal" in2="BackgroundImageFix" result="effect1_dropShadow_94_650"/>
<feBlend mode="normal" in="SourceGraphic" in2="effect1_dropShadow_94_650" result="shape"/>
</filter>
</defs>
</svg>
