<svg width="16" height="16" viewBox="0 0 16 16" fill="none" xmlns="http://www.w3.org/2000/svg">
<path d="M5.99996 4.66667H5.33329V6H4.66663V10H5.33329V11.3333H5.99996V12H7.33329V11.3333H7.99996V10H8.66663V6H7.99996V4.66667H7.33329V4H5.99996V4.66667ZM7.33329 6V10H5.99996V6L7.33329 6Z" fill="#F5A623"/>
<path d="M5.33329 2.00001H4.66663V2.66668H3.99996V4.00001H3.33329V5.33334H2.66663V10.6667H3.33329L3.33329 12H3.99996V13.3333H4.66663V14H5.33329V15.3333L10.6666 15.3333V14H11.3333V13.3333H12V12H12.6666V10H13.3333V6.00001H12.6666V4.00001H12V2.66668H11.3333V2.00001H10.6666L10.6666 0.666676L5.33329 0.666676V2.00001ZM10.6666 12V13.3333H9.99996V14H8.66663V13.3333H9.33329V12H10.6666ZM12 8.66668V10.6667H10.6666V8.66668H12ZM12 5.33334V7.33334H10.6666V5.33334H12ZM9.99996 2.00001V2.66668H10.6666V4.00001H9.33329V2.66668H8.66663V2.00001H9.99996ZM7.33329 2.00001V2.66668H7.99996V4.00001H8.66663V5.33334H9.33329V10.6667H8.66663V12H7.99996V13.3333L7.33329 13.3333V14L5.99996 14V13.3333H5.33329V12H4.66663V10.6667H3.99996L3.99996 5.33334H4.66663L4.66663 4.00001H5.33329V2.66668H5.99996V2.00001L7.33329 2.00001Z" fill="#F5A623"/>
</svg>
