<svg width="36" height="36" viewBox="0 0 36 36" fill="none" xmlns="http://www.w3.org/2000/svg">
<path d="M15.0042 0.0135592C17.1325 -0.0131668 19.3253 0.00691182 21.4554 0.0124286L21.4549 0.506499C21.9156 0.496498 22.3991 0.502171 22.8617 0.500884L22.8605 1.00807L24.7695 1.00653L24.7701 1.5345C25.2071 1.53199 25.6442 1.53226 26.081 1.5353L26.0787 2.02288L26.8163 2.02267C26.8206 2.18374 26.819 2.35317 26.82 2.51502L27.6898 2.51389L27.6892 3.00313L28.6123 2.99942L28.6164 3.52227L29.2966 3.51989L29.2958 3.99881L29.8209 3.9948L29.819 4.51536L30.4993 4.51154C30.5019 4.67751 30.4976 4.85301 30.4962 5.01976L30.7395 5.0213C30.7344 5.19885 30.7337 5.37652 30.7376 5.55412C30.9703 5.54931 31.2142 5.5527 31.4478 5.55264L31.4468 6.50684L32.1403 6.50567L32.1417 7.05035C32.3015 7.04739 32.4685 7.05041 32.6291 7.05092L32.6273 7.5038L32.9222 7.50276L32.9242 8.03354C33.1514 8.03631 33.3838 8.03385 33.6114 8.03393L33.6103 9.02883C33.7742 9.03055 33.9379 9.03018 34.1018 9.0277C34.0993 9.36978 34.0987 9.71186 34.0998 10.0539L34.6634 10.0516C34.6467 10.5457 34.6575 11.0713 34.6602 11.5686L35.2445 11.5613C35.2661 12.0078 35.2228 12.4934 35.2479 12.944C35.2559 13.0851 35.3063 12.9626 35.3902 13.0392C35.4169 13.2343 35.401 13.7162 35.4006 13.9348L35.728 13.9344L35.7286 14.6798L36 14.6801C35.981 16.939 35.9776 19.1979 35.9898 21.4568L35.7202 21.458C35.7241 21.7048 35.7251 21.9516 35.7229 22.1984L35.381 22.1992C35.3755 22.6894 35.3812 23.1902 35.3816 23.6815L35.0155 23.6819C35.0294 24.1657 35.0222 24.6815 35.0222 25.1679C34.7873 25.1726 34.5524 25.1737 34.3175 25.1716L34.3177 26.6393L33.5989 26.6364C33.6034 27.1239 33.6044 27.6116 33.6018 28.0994L32.8685 28.0974L32.8697 28.8122C32.6287 28.8204 32.3926 28.8171 32.1517 28.8152C32.1532 29.0218 32.1528 29.2286 32.1505 29.4355C31.9244 29.4427 31.674 29.438 31.446 29.4378L31.4462 30.1532C31.2105 30.1567 30.9672 30.1538 30.7307 30.1538C30.7289 30.3922 30.7323 30.6345 30.7335 30.8733L30.0284 30.8735C30.027 31.1152 30.0315 31.3626 30.0333 31.6047L29.2951 31.6059L29.2974 32.3305L27.8774 32.3326C27.8782 32.5724 27.8776 32.8124 27.8757 33.0523C27.6339 33.057 27.3839 33.0547 27.1414 33.0555L27.1424 33.7719C26.6785 33.7683 26.2147 33.7676 25.7508 33.7695L25.7548 34.5079C25.3052 34.5251 24.7718 34.5132 24.3158 34.5142L24.3175 35.2627L21.459 35.2612C21.4562 35.5054 21.4584 35.7538 21.4584 35.9984L14.2778 36L14.2798 35.2606L12.1416 35.2624C12.1413 35.0123 12.1424 34.7621 12.1447 34.5118C11.4261 34.5152 10.7075 34.5144 9.98891 34.5095L9.98863 33.7687C9.52811 33.7752 9.05426 33.7693 8.59269 33.7685L8.59402 33.0559L7.86802 33.0549L7.86786 32.3317L6.43825 32.3313L6.43705 31.603C6.19486 31.6063 5.95265 31.6065 5.71046 31.604C5.70728 31.3624 5.71011 31.115 5.71024 30.8729L5.01012 30.8725L5.01767 30.1532L4.30069 30.1536C4.30555 29.9187 4.30298 29.6752 4.30355 29.4396L3.58969 29.4398C3.58584 28.9912 3.58582 28.5426 3.58961 28.0943L2.85915 28.096C2.86725 27.8528 2.8621 27.5943 2.86084 27.3496C2.62616 27.358 2.37248 27.3553 2.13621 27.3568C2.13047 26.8785 2.12974 26.4001 2.13403 25.9217L1.41691 25.9233C1.42731 25.4385 1.42017 24.9289 1.42344 24.4412C1.18737 24.4373 0.951238 24.4371 0.715166 24.4406L0.71942 22.1984H0.000343165C0.0108213 21.4635 8.43881e-05 20.6997 0.000868683 19.9611C1.40701 19.9381 2.90307 19.9617 4.31439 19.963L4.31183 22.9191L5.02497 22.9189L5.02544 24.4002L5.72852 24.3987L5.7264 25.8831L6.45642 25.8823L6.45532 26.6192C6.69114 26.6135 6.92704 26.6118 7.16291 26.6141L7.16344 27.3457L7.88704 27.3453L7.88441 28.0656L8.61476 28.0643L8.61549 28.8126L9.30869 28.8066L9.30951 29.4162C9.53698 29.4134 9.76446 29.4123 9.99195 29.413C9.99852 29.6557 9.99948 29.8986 9.99483 30.1413L11.4364 30.1491L11.4358 30.857C11.9193 30.8494 12.4209 30.8564 12.9057 30.857L12.9055 31.5749L15.0175 31.5716C15.02 31.7266 15.0188 31.8843 15.0192 32.0396L15.0205 32.3073C15.6709 32.2855 16.4018 32.3022 17.0571 32.3024L20.7298 32.3012L20.7292 31.5743L22.847 31.573L22.8468 30.8568L24.2934 30.8558C24.2954 30.6195 24.2954 30.3831 24.2932 30.1466L25.7446 30.1431C25.742 29.9004 25.741 29.6579 25.7416 29.4152C25.9677 29.4113 26.2055 29.4154 26.4326 29.416L26.4338 28.8091C26.6694 28.8107 26.9051 28.8109 27.1408 28.8097C27.1326 28.5639 27.13 28.3124 27.1249 28.0662L27.8518 28.0651L27.852 27.344C28.0943 27.3416 28.3404 27.3444 28.5829 27.345C28.5933 27.1206 28.5853 26.8438 28.5839 26.6153L29.278 26.6128C29.2778 26.3691 29.2792 26.1254 29.2819 25.8817L30.0158 25.8845C30.0239 25.6336 30.0221 25.41 30.0168 25.1587C30.2468 25.1519 30.4772 25.1515 30.7072 25.1576L30.7103 23.6667C30.9436 23.671 31.1868 23.668 31.4209 23.6686L31.4217 21.4374L32.1254 21.4383L32.1262 14.7042L31.4217 14.7034L31.4207 12.2959L30.7097 12.2959L30.7084 11.5876L30.4778 11.5844L30.4756 11.0414L30.005 11.0477C30.0158 10.737 30.0074 10.3868 30.0066 10.0732L29.2739 10.0739C29.27 9.72934 29.2705 9.38479 29.2756 9.04028L28.587 9.03739L28.5825 8.52381C28.4688 8.52044 28.3355 8.52517 28.2202 8.52652L28.2208 8.04853L27.6651 8.04802C27.6718 7.87207 27.6696 7.68057 27.6712 7.50333L27.1228 7.50027L27.123 7.06589C26.8998 7.05984 26.6539 7.06487 26.429 7.06522C26.4324 6.88284 26.4269 6.70786 26.4216 6.52587L25.5185 6.52484C25.5106 6.35836 25.5136 6.17212 25.5126 6.00402L25.0063 5.99821L25.0059 5.55615C24.7809 5.56465 24.5463 5.55974 24.3203 5.55837L24.3209 5.04007C23.8301 5.03629 23.3391 5.03619 22.8482 5.03976L22.8476 4.52304C22.1431 4.51201 21.4184 4.52109 20.7121 4.52123L20.7135 4.01131L15.0208 4.01314L15.0226 4.51715C14.5487 4.52249 14.0747 4.52477 13.6007 4.52399C13.5946 4.69125 13.596 4.86699 13.5946 5.03497C13.0571 5.03859 12.5196 5.03925 11.982 5.03699C11.9739 5.20437 11.9788 5.39459 11.9794 5.56379L11.4273 5.5658L11.4285 6.00118L10.7699 6.00036L10.7702 6.52534L9.65278 6.52564L9.65427 7.06398L9.30373 7.06867L9.30479 7.502L8.61437 7.50046L8.61623 8.05056C8.44008 8.05808 8.2505 8.05639 8.07319 8.05802C8.07558 8.21524 8.07693 8.37248 8.07727 8.52973L7.53344 8.53163L7.53404 9.03893L7.14305 9.04556L7.14623 9.54963C6.91641 9.54885 6.68657 9.54942 6.45674 9.55131L6.45562 10.0537L11.9747 10.0528L11.9708 13.9684C11.3836 13.9467 10.6652 13.9608 10.0733 13.9635L7.39858 13.9655C4.94295 13.9652 2.45234 13.9407 0.000331497 13.9657L0 2.02454C1.30784 2.01237 2.67906 2.01144 3.98605 2.02764L3.98462 6.50788L4.4951 6.50486L4.49176 6.00999L5.00865 6.00782L5.01112 5.5583C5.14563 5.55391 5.2878 5.55473 5.42303 5.55332C5.42115 5.37663 5.42152 5.19992 5.42413 5.02323C5.58685 5.02052 5.7496 5.0188 5.91234 5.01806L5.91514 4.51588L6.43685 4.51516L6.43781 3.99322L7.11954 3.99386L7.12021 3.52176L7.51679 3.52377L7.51395 3.00391L8.59037 3.0034L8.59247 2.51243L9.29871 2.50991L9.2983 2.02193L10.2085 2.02577C10.2149 1.86444 10.2118 1.69457 10.2114 1.5325C10.614 1.53316 11.0168 1.53101 11.4195 1.52604C11.4194 1.35325 11.4207 1.18044 11.4233 1.00765L12.877 1.0049C12.8758 0.837737 12.8777 0.670558 12.8827 0.503458C13.5494 0.524647 14.3299 0.504004 15.0047 0.502288L15.0042 0.0135592Z" fill="white"/>
<path d="M16.0291 8.03571C16.5038 8.023 17.0254 8.03181 17.5036 8.03144L20.0439 8.03364L20.0433 17.7216C20.2723 17.7176 20.509 17.7197 20.7386 17.7191C20.7425 17.971 20.7398 18.2295 20.74 18.4819L21.4548 18.4768L21.4541 19.2266L22.1678 19.2238C22.1782 19.4556 22.1703 19.7264 22.1683 19.9615C22.4003 19.9586 22.6323 19.9584 22.8644 19.9613L22.8648 20.6779C23.1013 20.6785 23.3407 20.6748 23.5773 20.6724L23.575 21.4374L24.3136 21.4376C24.3177 21.6812 24.3132 21.9354 24.3124 22.1799L25.0144 22.176L25.0159 22.9205C25.2614 22.9189 25.5071 22.9189 25.7526 22.9201C25.7487 23.1647 25.7541 23.4218 25.7559 23.6675L26.4551 23.6686L26.4549 24.4404L25.7459 24.44C25.7514 24.6805 25.751 24.9262 25.753 25.1671C25.5128 25.1718 25.2649 25.1698 25.0242 25.171L25.0251 25.9233L24.3122 25.9239L24.314 26.6395L23.5632 26.6358C23.5697 26.3972 23.5644 26.1591 23.5611 25.9205L22.8474 25.9229L22.8468 25.1665L22.1574 25.1714L22.1615 24.4408L21.4303 24.4414C21.4237 24.1926 21.4262 23.93 21.4246 23.6801L20.7164 23.6807C20.716 23.4302 20.7168 23.1797 20.719 22.9294C20.4958 22.9203 20.2484 22.9273 20.0235 22.9288C20.0176 22.6887 20.0206 22.4372 20.0198 22.1963L19.2725 22.199C19.279 21.9563 19.2768 21.7011 19.2786 21.4574L18.5743 21.4563C18.57 21.2124 18.5727 20.9609 18.5724 20.7163L17.8539 20.7159V19.9728C17.6241 19.9708 17.3899 19.9736 17.1596 19.974L17.1614 19.2357L16.4278 19.2369C16.4293 18.9895 16.428 18.7421 16.4237 18.4948L15.9846 18.4938L15.9833 11.3002L15.9832 9.08481C15.9832 8.85176 15.9666 8.25591 15.9904 8.05785L16.0291 8.03571Z" fill="white"/>
</svg>
