<svg width="36" height="36" viewBox="0 0 36 36" fill="none" xmlns="http://www.w3.org/2000/svg">
<path d="M6.83279 20.0714C7.14146 20.0781 7.46991 20.082 7.77618 20.046L22.185 20.0475L26.2815 20.0473C26.7153 20.0473 27.8809 20.0172 28.2591 20.0599C28.5621 20.0707 28.8655 20.075 29.1687 20.0725L29.168 20.9966C29.5925 20.9974 30.0297 21.0036 30.4532 20.9964C30.7538 20.9951 31.0544 20.9969 31.3551 21.0015C31.353 21.3284 31.3419 21.6998 31.3692 22.0223C31.5828 22.021 32.1343 22.0058 32.3242 22.0331C32.3309 22.3682 32.3342 22.7033 32.334 23.0384C32.6421 23.0384 32.9502 23.0425 33.2583 23.0503L33.2647 23.967C33.5646 23.9675 33.8843 23.9623 34.1823 23.9754C34.179 24.2921 34.1766 24.5889 34.1877 24.9058C34.4953 24.9034 34.8026 24.9027 35.11 24.9037C35.1453 25.1854 35.1226 25.9705 35.1208 26.2812L35.9822 26.2987C35.9608 26.5726 35.983 26.9291 35.9923 27.2095C35.9894 28.9318 35.9701 30.739 36 32.455C35.6991 32.4614 35.398 32.4632 35.0968 32.4606C35.0955 33.0234 35.0883 33.5978 35.0937 34.1596C34.7921 34.1629 34.4904 34.1627 34.1888 34.1583C34.1821 34.4657 34.1803 34.7731 34.1836 35.0804C33.5836 35.0902 32.9296 35.1115 32.3335 35.0838L32.3342 35.9999L3.65871 35.9927L3.66018 35.0845C3.07263 35.0966 2.41655 35.1028 1.82812 35.0814C1.82469 34.7885 1.81351 34.4503 1.82245 34.1617C1.53143 34.1645 1.19221 34.1606 0.90503 34.175L0.903639 32.4614L0.00296145 32.4596C0.0311954 30.8022 0.0288772 28.9714 0.00734115 27.3102C-0.0182394 27.2102 0.0307062 26.4498 0.0375328 26.2814C0.325797 26.2966 0.614628 26.2969 0.902918 26.2825L0.903253 24.9032L1.80506 24.9037C1.82062 24.6028 1.81921 24.2807 1.82312 23.978C2.122 23.9631 2.43365 23.9492 2.73168 23.967L2.73483 23.0276L3.66351 23.0318L3.66425 22.0454C4.2879 22.0336 4.91162 22.0274 5.53537 22.0272C5.52504 21.6918 5.53617 21.3343 5.54129 20.9966L6.85677 20.9989C6.81695 20.7874 6.83037 20.3009 6.83279 20.0714Z" fill="white"/>
<path d="M16.1811 0.000282342L19.7521 0L19.7601 0.913127C20.6035 0.899172 21.4469 0.899095 22.2906 0.912921C22.2986 1.19957 22.2942 1.51072 22.2952 1.79935L23.2249 1.80258C23.2391 2.08451 23.2277 2.43577 23.2252 2.72339C23.548 2.73301 23.8159 2.7365 24.1384 2.72478C24.1451 3.02097 24.1425 3.3263 24.1433 3.62339L25.0488 3.62303C25.0712 4.40252 25.0611 5.24415 25.0668 6.02731L25.98 6.03921C26.0238 7.17654 25.9873 8.48665 25.9942 9.64068L25.0658 9.63983L25.0619 12.2407C24.7608 12.2474 24.4431 12.2425 24.1405 12.2422L24.1417 13.1804L23.2138 13.1807L23.2195 14.1095C22.8983 14.1359 22.6036 14.1275 22.2834 14.1185C22.2779 14.4639 22.2846 14.8255 22.2857 15.1721C21.4438 15.1701 20.6019 15.1727 19.7601 15.1799L19.7621 16.0886L19.7534 16.1104C19.6823 16.1577 18.4999 16.1397 18.3154 16.1402C17.6065 16.142 16.8893 16.1397 16.1802 16.139L16.1861 15.1817L13.683 15.1696L13.6842 14.1159C13.3918 14.128 13.0686 14.1149 12.7738 14.1092C12.7722 13.7983 12.7664 13.4873 12.7564 13.1766L11.8491 13.1676L11.849 12.2484L10.9276 12.2343C10.9051 11.3934 10.9194 10.4855 10.9186 9.63878L9.98529 9.63855C9.97166 8.44966 9.98158 7.2192 9.98439 6.02862C10.2969 6.03142 10.6093 6.03155 10.9218 6.02903L10.9227 3.62254L11.852 3.62416L11.8532 2.73522C12.1487 2.73997 12.4591 2.73396 12.7558 2.73211L12.7613 1.79942L13.6818 1.79932C13.6892 1.51259 13.6864 1.21037 13.6877 0.922224C14.3961 0.872496 15.4538 0.905777 16.1803 0.908835C16.1694 0.606044 16.1769 0.303253 16.1811 0.000282342Z" fill="white"/>
</svg>
