<svg width="36" height="58" viewBox="0 0 36 58" fill="none" xmlns="http://www.w3.org/2000/svg">
<g clip-path="url(#clip0_105_224)">
<path d="M10.5333 0H25.388C25.4781 0.643616 25.42 1.42058 25.4305 2.07861C25.4347 2.34189 25.464 2.86054 25.4216 3.09594C25.5477 3.1974 26.195 3.12007 26.4112 3.12378C26.3911 3.7716 26.4339 4.6717 26.3534 5.28363C26.501 5.44486 27.085 5.24974 27.3655 5.36055C27.3717 5.36776 27.4273 5.43161 27.4273 5.43161C27.4649 6.09423 27.4562 6.80737 27.4802 7.46919C27.185 7.4757 26.5968 7.44082 26.3669 7.47538C26.3904 8.02621 26.4104 8.903 26.3664 9.44866C26.7116 9.41316 27.0857 9.42103 27.4348 9.42072C27.4396 10.1291 27.4317 10.9016 27.4589 11.6037C27.7732 11.5869 28.1755 11.5722 28.4946 11.5796C28.5216 11.9815 28.5348 13.2148 28.496 13.6113C28.5447 13.677 28.541 13.6975 28.636 13.702C29.1936 13.7284 29.8148 13.7193 30.3694 13.7203L34.1092 13.7059C34.6389 13.7045 35.4336 13.6796 35.9452 13.7129C35.9002 14.9297 35.9339 16.355 35.9343 17.5845L35.936 24.7692V46.369V54.2211L35.9402 56.6378C35.9406 56.9788 35.9575 57.6218 35.9223 57.9375H0V13.7379C0.232437 13.689 1.53327 13.7241 1.87528 13.7181C3.68698 13.6866 5.56864 13.769 7.37518 13.7075C7.3286 13.4331 7.35279 11.9408 7.35321 11.5864C7.5703 11.5962 8.26583 11.6357 8.42164 11.5675C8.38245 11.1799 8.41409 9.84537 8.42762 9.4249C8.77525 9.42103 9.12287 9.41938 9.4705 9.41998C9.43049 9.13141 9.41952 7.74664 9.47552 7.50154C9.16639 7.45102 8.73271 7.4751 8.41191 7.48596C8.37193 6.98706 8.40171 5.8628 8.40962 5.33232C8.65216 5.31299 9.21125 5.33714 9.48864 5.3325C9.42423 5.05719 9.47074 3.49263 9.49068 3.15034C9.78926 3.15509 10.0879 3.15433 10.3864 3.14808C10.4917 3.14574 10.4563 3.16297 10.52 3.09642C10.4309 2.793 10.4286 0.302457 10.5333 0Z" fill="#1A2241"/>
<path d="M10.5333 0H25.388C25.4781 0.643616 25.42 1.42058 25.4305 2.07861C25.4348 2.34189 25.464 2.86054 25.4216 3.09594C25.5477 3.1974 26.195 3.12007 26.4112 3.12378C26.3911 3.7716 26.4339 4.6717 26.3534 5.28363C26.501 5.44486 27.085 5.24974 27.3655 5.36055C27.3718 5.36776 27.4273 5.43161 27.4273 5.43161C27.465 6.09423 27.4562 6.80737 27.4802 7.46919C27.185 7.4757 26.5968 7.44082 26.367 7.47538C24.5176 7.44634 22.668 7.43927 20.8185 7.45414L11.5992 7.4552C10.9672 7.45309 10.0833 7.42954 9.47554 7.50154C9.16641 7.45102 8.73272 7.4751 8.41192 7.48596C8.37195 6.98706 8.40173 5.8628 8.40964 5.33232C8.65218 5.31299 9.21127 5.33714 9.48865 5.3325C9.42425 5.05719 9.47076 3.49263 9.49069 3.15034C9.78927 3.15509 10.0879 3.15433 10.3864 3.14808C10.4917 3.14574 10.4563 3.16297 10.52 3.09642C10.4309 2.793 10.4286 0.302457 10.5333 0Z" fill="#A17941"/>
<path d="M10.5333 0H25.388C25.478 0.643616 25.42 1.42058 25.4305 2.07861C25.4347 2.34189 25.464 2.86054 25.4215 3.09594C25.3029 3.16836 24.1626 3.16211 23.9539 3.16232L21.1456 3.16342C17.6837 3.16396 14.2106 3.1714 10.748 3.15305C10.6162 3.15235 10.6193 3.17023 10.52 3.09642C10.4309 2.793 10.4286 0.302457 10.5333 0Z" fill="#C8A97A"/>
<path d="M10.52 3.09643C10.6192 3.17024 10.6162 3.15236 10.748 3.15306C14.2106 3.1714 17.6837 3.16396 21.1455 3.16342L23.9539 3.16233C24.1625 3.16212 25.3029 3.16836 25.4215 3.09595C25.5477 3.19741 26.195 3.12008 26.4111 3.12378C26.3911 3.7716 26.4338 4.67171 26.3534 5.28364C26.2221 5.36285 25.2384 5.34312 25.0094 5.34326C22.2386 5.34481 19.4677 5.34467 16.6969 5.34478L12.1189 5.34474C11.2693 5.34467 10.3328 5.36253 9.48861 5.33251C9.4242 5.0572 9.47071 3.49264 9.49065 3.15035C9.78923 3.1551 10.0878 3.15434 10.3864 3.14809C10.4917 3.14574 10.4562 3.16298 10.52 3.09643Z" fill="#B8965D"/>
<path d="M11.5992 7.45519L20.8185 7.45414C22.668 7.43927 24.5176 7.44633 26.3669 7.47537C26.3904 8.0262 26.4104 8.903 26.3664 9.44866C26.7116 9.41315 27.0857 9.42103 27.4348 9.42071C27.4396 10.1291 27.4317 10.9016 27.4589 11.6037C27.7732 11.5869 28.1754 11.5722 28.4946 11.5796C28.5216 11.9815 28.5348 13.2148 28.496 13.6113L28.4665 13.6851C28.2633 13.7293 27.0696 13.7135 26.7791 13.7131L23.0751 13.7114L7.37518 13.7075C7.3286 13.4331 7.35279 11.9407 7.35321 11.5864C7.5703 11.5962 8.26583 11.6357 8.42164 11.5675C8.38244 11.1799 8.41408 9.84536 8.42762 9.42489C8.77524 9.42102 9.12287 9.41937 9.47049 9.41997C9.43048 9.13141 9.41952 7.74664 9.47552 7.50153C10.0833 7.42953 10.9672 7.45308 11.5992 7.45519Z" fill="#2E3D62"/>
<path d="M9.47553 7.50154C10.0833 7.42954 10.9672 7.4531 11.5992 7.45521L11.6041 9.41946L10.5448 9.42322C10.5466 10.1075 10.5298 10.9254 10.5533 11.6001C10.2501 11.6016 8.55019 11.6319 8.42165 11.5675C8.38245 11.1799 8.4141 9.84537 8.42763 9.4249C8.77526 9.42104 9.12288 9.41939 9.47051 9.41998C9.4305 9.13142 9.41953 7.74665 9.47553 7.50154Z" fill="#2B56AF"/>
<path d="M2.03284 14.7654L33.8253 14.7656L33.8236 46.3331L33.8271 55.832L2.03715 55.8369L2.03875 47.4107L2.03836 36.907L2.03739 15.8194L2.03284 14.7654Z" fill="#3A6FD8"/>
<path d="M33.8237 46.3331L33.8271 55.832L2.03717 55.8369L2.03877 47.4107C2.46042 47.3744 3.13642 47.3927 3.57393 47.3927L6.25849 47.391L6.25621 46.3303L21.0924 46.3352L24.3272 46.3363L33.8237 46.3331Z" fill="#2B56AF"/>
<path d="M4.15299 15.823C4.83435 15.8217 5.58325 15.8349 6.25723 15.8159L6.25459 36.1002L6.25449 42.9427C6.25449 43.9587 6.2097 45.3498 6.25621 46.3303L6.2585 47.391L3.57393 47.3927C3.13642 47.3927 2.46042 47.3745 2.03878 47.4107L2.03838 36.907L2.03741 15.8194L4.15299 15.823Z" fill="#5D8FE9"/>
<path d="M2.03741 15.8194L4.15299 15.823C4.15134 16.17 4.13755 16.6028 4.14884 16.9432L3.09729 16.9424C3.09293 19.3609 3.12618 21.8481 3.09307 24.2601L4.14061 24.255L4.14701 33.203C4.14684 34.4043 4.12078 35.7209 4.15151 36.9134C3.44714 36.9186 2.74272 36.9165 2.03838 36.907L2.03741 15.8194Z" fill="#7AAAF9"/>
<path d="M4.14885 16.9432L5.20241 16.9437L5.20526 24.2586L4.14062 24.255L3.09308 24.2601C3.12619 21.8481 3.09294 19.3609 3.0973 16.9424L4.14885 16.9432Z" fill="#99BEFE"/>
<path d="M21.0972 43.3195C22.15 43.3164 23.2833 43.3361 24.3295 43.3107C24.3244 44.2839 24.3583 45.3832 24.3272 46.3363L21.0924 46.3352C21.093 45.3435 21.078 44.3074 21.0972 43.3195Z" fill="#5D8FE9"/>
<path d="M16.8762 26.367L20.0382 26.3641L20.0418 29.6029L16.8745 29.6019L16.8762 26.367Z" fill="#5D8FE9"/>
<path d="M11.6017 37.9726C12.1918 38.0021 13.1667 37.9705 13.783 37.968C13.7722 38.6585 13.782 39.3834 13.782 40.0764L11.6015 40.0792L11.6017 37.9726Z" fill="#5D8FE9"/>
<path d="M24.329 33.6797C25.0085 33.6828 25.6881 33.682 26.3676 33.6774C26.357 34.3929 26.3672 35.1422 26.3676 35.8601L24.3275 35.8608L24.329 33.6797Z" fill="#5D8FE9"/>
<path d="M7.38275 29.6015L9.48938 29.5989C9.48415 30.2554 9.48654 30.912 9.49659 31.5684L7.3843 31.5679L7.38275 29.6015Z" fill="#5D8FE9"/>
</g>
<defs>
<clipPath id="clip0_105_224">
<rect width="36" height="57.9375" fill="white"/>
</clipPath>
</defs>
</svg>
