<svg width="60" height="50" viewBox="0 0 60 50" fill="none" xmlns="http://www.w3.org/2000/svg">
<path d="M60 8.23529V21.9608H57.2727V24.7059H54.5455V27.451H51.8182V30.1961H49.0909V32.9412H46.3636V35.6863H43.6364V38.4314H40.9091V41.1765H38.1818V43.9216H35.4545V46.6667H32.7273V49.4118H27.2727V46.6667H24.5455V43.9216H21.8182V41.1765H19.0909V38.4314H16.3636V35.6863H13.6364V32.9412H10.9091V30.1961H8.18182V27.451H5.45455V24.7059H2.72727V21.9608H0V8.23529H2.72727V5.4902H5.45455V2.7451H8.18182V0H24.5455V2.7451H27.2727V5.4902H32.7273V2.7451H35.4545V0H51.8182V2.7451H54.5455V5.4902H57.2727V8.23529H60Z" fill="#E24B4A"/>
<path d="M28.625 30.4419V26.8052H24.6494V23.7332H28.625V19.6447H31.5162V23.7332H35.5144V26.8052H31.5162V30.4419H28.625Z" fill="white"/>
<rect x="9.17645" y="4.94118" width="2.82353" height="2.82353" fill="#EEF1F6"/>
<rect x="9.17645" y="7.76471" width="2.82353" height="2.82353" fill="#EEF1F6"/>
<rect x="6.35297" y="7.76471" width="2.82353" height="2.82353" fill="#EEF1F6"/>
<rect x="12" y="4.94118" width="2.82353" height="2.82353" fill="#EEF1F6"/>
<rect x="6.35297" y="10.5882" width="2.82353" height="2.82353" fill="#EEF1F6"/>
</svg>
