<svg width="36" height="36" viewBox="0 0 36 36" fill="none" xmlns="http://www.w3.org/2000/svg">
<path d="M8.18183 32.7272H4.9091V31.0909H3.27274V27.8182H4.9091V26.1818H6.54546V24.5454H8.18183V22.9091H6.54546V21.2727H4.9091V18H8.18183V19.6363H9.81819V18H11.4546V16.3636H13.0909V14.7272H14.7273V13.0909H16.3636V11.4545H18V9.81816H19.6364V8.1818H21.2727V6.54543H22.9091V4.90907H24.5455V3.27271H32.7273V11.4545H31.0909V13.0909H29.4546V14.7272H27.8182V16.3636H26.1818V18H24.5455V19.6363H22.9091V21.2727H21.2727V22.9091H19.6364V24.5454H18V26.1818H16.3636V27.8182H18V31.0909H14.7273V29.4545H13.0909V27.8182H11.4546V29.4545H9.81819V31.0909H8.18183M16.3636 21.2727V19.6363H18V18H19.6364V16.3636H21.2727V14.7272H22.9091V13.0909H24.5455V11.4545H26.1818V9.81816H27.8182V8.1818H29.4546V6.54543H26.1818V8.1818H24.5455V9.81816H22.9091V11.4545H21.2727V13.0909H19.6364V14.7272H18V16.3636H16.3636V18H14.7273V19.6363H13.0909V21.2727H16.3636Z" fill="white"/>
</svg>
